<?xml version="1.0" encoding="utf-8"?>
<!-- Designed by Vexels.com - 2016 All Rights Reserved - https://vexels.com/terms-and-conditions/  -->

<svg version="1.0" id="Capa_1" xmlns="http://www.w3.org/2000/svg" xmlns:xlink="http://www.w3.org/1999/xlink" x="0px" y="0px"
	 width="1199.53px" height="1199.529px" viewBox="0 0 1199.53 1199.529" enable-background="new 0 0 1199.53 1199.529"
	 xml:space="preserve">
<g>
	<path fill="#F26D4E" d="M599.746,108.813c-270.711,0-490.961,220.239-490.961,490.951s220.25,490.951,490.961,490.951
		c270.74,0,490.998-220.239,490.998-490.951S870.486,108.813,599.746,108.813z M599.746,1055.565
		c-251.301,0-455.756-204.471-455.756-455.801s204.455-455.802,455.756-455.802c251.33,0,455.801,204.472,455.801,455.802
		S851.076,1055.565,599.746,1055.565z"/>
	<path fill="#0CB2D3" d="M795.178,582.167H617.344V404.381c0-9.701-7.896-17.599-17.598-17.599c-9.682,0-17.553,7.897-17.553,17.599
		v177.786H404.361c-9.709,0-17.598,7.888-17.598,17.598c0,9.701,7.889,17.599,17.598,17.599h177.832v177.833
		c0,9.699,7.871,17.599,17.553,17.599c9.701,0,17.598-7.899,17.598-17.599V617.363h177.834c9.699,0,17.598-7.897,17.598-17.599
		C812.775,590.055,804.877,582.167,795.178,582.167z"/>
</g>
</svg>
