<?xml version="1.0" encoding="utf-8"?>
<!-- Generator: Adobe Illustrator 21.1.0, SVG Export Plug-In . SVG Version: 6.00 Build 0)  -->
<svg version="1.1" id="Layer_1" xmlns="http://www.w3.org/2000/svg" xmlns:xlink="http://www.w3.org/1999/xlink" x="0px" y="0px"
	 viewBox="0 0 122.6 46.2" style="enable-background:new 0 0 122.6 46.2;" xml:space="preserve">
<style type="text/css">
	.st0{fill:#FFFFFF;}
</style>
<g>
	<g>
		<polygon class="st0" points="61.2,7 61.2,8 59.8,8.2 59.8,19.3 58.1,19.3 52.2,9.7 52.1,9.8 52.1,18 53.5,18.2 53.5,19.3 
			49.1,19.3 49.1,18.2 50.5,18 50.5,8.2 49.1,8 49.1,7 50.5,7 52.1,7 58.1,16.5 58.1,16.4 58.1,8.2 56.8,8 56.8,7 59.8,7 		"/>
		<path class="st0" d="M68.5,19.3c0-0.2-0.1-0.5-0.1-0.6c0-0.2,0-0.4,0-0.6c-0.3,0.4-0.7,0.7-1.2,1s-1,0.4-1.5,0.4
			c-0.9,0-1.7-0.2-2.2-0.7s-0.7-1.1-0.7-2c0-0.9,0.3-1.5,1-2s1.7-0.7,2.9-0.7h1.7V13c0-0.5-0.1-0.9-0.5-1.3
			c-0.3-0.3-0.8-0.5-1.4-0.5c-0.4,0-0.8,0-1.1,0.1c-0.3,0.1-0.6,0.2-0.8,0.4l-0.3,1H63v-1.8c0.4-0.3,0.9-0.6,1.5-0.8
			s1.2-0.3,1.9-0.3c1,0,1.9,0.2,2.5,0.8c0.6,0.5,0.9,1.3,0.9,2.3v4.4c0,0.1,0,0.2,0,0.3s0,0.2,0,0.3l0.7,0.1v1.1L68.5,19.3
			L68.5,19.3z M65.8,18.1c0.5,0,1-0.1,1.5-0.4c0.4-0.2,0.8-0.6,1-0.9v-1.5h-1.8c-0.7,0-1.2,0.1-1.6,0.5c-0.4,0.3-0.6,0.7-0.6,1.1
			s0.1,0.7,0.4,0.9C64.9,18,65.3,18.1,65.8,18.1"/>
		<path class="st0" d="M75,7.9v2.2h1.7v1.2H75v5.6c0,0.4,0.1,0.7,0.2,0.9c0.2,0.2,0.4,0.2,0.7,0.2c0.1,0,0.3,0,0.5,0s0.3,0,0.4-0.1
			L77,19c-0.1,0.1-0.4,0.2-0.7,0.2c-0.3,0-0.6,0.1-0.9,0.1c-0.7,0-1.2-0.2-1.6-0.6s-0.6-1-0.6-1.9v-5.6h-1.4V10h1.4V7.8L75,7.9
			L75,7.9z"/>
		<path class="st0" d="M78.4,18.2l1.4-0.2v-6.5l-1.4-0.2v-1.1h3.1v7.9l1.4,0.2v1.1h-4.4L78.4,18.2L78.4,18.2z M81.1,8.3h-1.7V6.6
			h1.7V8.3z"/>
		<path class="st0" d="M84.1,14.6c0-1.3,0.3-2.5,1.1-3.4c0.7-0.9,1.7-1.3,3-1.3s2.3,0.4,3,1.3s1.1,2,1.1,3.4v0.2
			c0,1.4-0.3,2.5-1.1,3.4c-0.7,0.9-1.7,1.3-3,1.3s-2.3-0.4-3-1.3s-1.1-2-1.1-3.4V14.6z M85.8,14.8c0,1,0.2,1.8,0.6,2.4
			s1,0.9,1.8,0.9s1.4-0.3,1.8-0.9s0.6-1.4,0.6-2.4v-0.2c0-0.9-0.2-1.8-0.6-2.4s-1-0.9-1.8-0.9s-1.4,0.3-1.8,0.9s-0.6,1.4-0.6,2.4
			V14.8L85.8,14.8z"/>
		<path class="st0" d="M93.6,18.2L95,18v-6.5l-1.4-0.2v-1.1h2.9l0.1,1.4c0.3-0.5,0.7-0.8,1.1-1.1c0.4-0.2,1-0.4,1.6-0.4
			c1,0,1.7,0.3,2.3,0.9c0.5,0.6,0.8,1.5,0.8,2.7v4.5l1.4,0.2v1.1h-4.4v-1.1l1.4-0.2v-4.5c0-0.8-0.1-1.4-0.5-1.7
			c-0.3-0.3-0.8-0.5-1.4-0.5c-0.5,0-0.9,0.1-1.3,0.3c-0.3,0.2-0.6,0.5-0.9,0.9v5.4l1.4,0.2v1.1h-4.4L93.6,18.2L93.6,18.2z"/>
		<path class="st0" d="M111,19.3c0-0.2-0.1-0.5-0.1-0.6c0-0.2,0-0.4,0-0.6c-0.3,0.4-0.7,0.7-1.2,1s-1,0.4-1.5,0.4
			c-0.9,0-1.7-0.2-2.2-0.7c-0.5-0.4-0.7-1.1-0.7-2c0-0.9,0.3-1.5,1-2s1.7-0.7,2.9-0.7h1.7V13c0-0.5-0.1-0.9-0.5-1.3
			c-0.3-0.3-0.8-0.5-1.4-0.5c-0.4,0-0.8,0-1.1,0.1c-0.3,0.1-0.6,0.2-0.8,0.4l-0.2,0.9h-1.3v-1.8c0.4-0.3,0.9-0.6,1.5-0.8
			c0.6-0.2,1.2-0.3,1.9-0.3c1,0,1.9,0.2,2.5,0.8c0.6,0.5,0.9,1.3,0.9,2.3v4.4c0,0.1,0,0.2,0,0.3s0,0.2,0,0.3l0.7,0.1V19L111,19.3
			L111,19.3z M108.3,18.1c0.5,0,1-0.1,1.5-0.4c0.4-0.2,0.8-0.6,1-0.9v-1.5h-1.7c-0.7,0-1.2,0.1-1.6,0.5c-0.4,0.3-0.6,0.7-0.6,1.1
			s0.1,0.7,0.4,0.9C107.4,18,107.8,18.1,108.3,18.1"/>
		<polygon class="st0" points="114.4,7.1 114.4,6.1 117.4,6.1 117.4,18 118.8,18.2 118.8,19.3 114.4,19.3 114.4,18.2 115.7,18 
			115.7,7.4 		"/>
		<path class="st0" d="M52.1,21.2c0.9,0,1.7,0.3,2.3,0.9s0.9,1.3,0.9,2.3v1c0,0.9-0.3,1.7-0.9,2.3c-0.6,0.6-1.3,0.9-2.3,0.9H49V28
			l0.8-0.1v-5.8L49,22v-0.6h0.8h2.3V21.2z M50.8,22v5.8H52c0.7,0,1.2-0.2,1.6-0.6c0.4-0.4,0.6-1,0.6-1.7v-1c0-0.7-0.2-1.2-0.6-1.7
			c-0.4-0.4-0.9-0.6-1.6-0.6L50.8,22L50.8,22z"/>
		<path class="st0" d="M56.3,27.9l0.8-0.1v-3.9l-0.8-0.1v-0.6h1.8v4.7l0.8,0.1v0.6h-2.6L56.3,27.9L56.3,27.9z M58,21.7h-1v-1h1V21.7
			z"/>
		<path class="st0" d="M59.6,25.9c0-0.9,0.2-1.6,0.6-2.1s0.9-0.8,1.6-0.8c0.3,0,0.6,0,0.9,0.2c0.2,0.1,0.5,0.3,0.6,0.6l0.1-0.7h0.8
			v5.4c0,0.7-0.2,1.2-0.6,1.7c-0.4,0.4-0.9,0.6-1.7,0.6c-0.2,0-0.5,0-0.8-0.1c-0.3,0-0.6-0.1-0.8-0.3l0.2-0.8
			c0.2,0.1,0.4,0.2,0.6,0.2s0.5,0.1,0.7,0.1c0.4,0,0.7-0.1,1-0.4c0.2-0.2,0.3-0.6,0.3-1V28c-0.2,0.2-0.4,0.4-0.6,0.5
			c-0.1,0.1-0.4,0.2-0.7,0.2c-0.6,0-1.2-0.2-1.6-0.7C59.8,27.4,59.6,26.8,59.6,25.9C59.6,26,59.6,25.9,59.6,25.9z M60.6,26
			c0,0.5,0.1,1,0.3,1.3c0.2,0.3,0.6,0.5,1,0.5c0.3,0,0.5,0,0.7-0.2s0.3-0.3,0.5-0.6v-2.5c-0.1-0.2-0.3-0.4-0.5-0.5s-0.4-0.2-0.7-0.2
			c-0.5,0-0.8,0.2-1,0.6C60.7,24.8,60.6,25.3,60.6,26L60.6,26z"/>
		<path class="st0" d="M65.5,27.9l0.8-0.1v-3.9l-0.8-0.1v-0.6h1.8v4.7l0.8,0.1v0.6h-2.6L65.5,27.9L65.5,27.9z M67.3,21.7h-1v-1h1
			V21.7z"/>
		<path class="st0" d="M70.6,21.8v1.3h1v0.7h-1v3.3c0,0.2,0,0.4,0.1,0.5s0.2,0.1,0.4,0.1c0.1,0,0.2,0,0.3,0c0.1,0,0.2,0,0.3,0
			l0.1,0.7c-0.1,0-0.2,0.1-0.4,0.1c-0.2,0-0.3,0-0.5,0c-0.4,0-0.7-0.1-0.9-0.3c-0.2-0.2-0.3-0.6-0.3-1.1v-3.3h-0.8v-0.7h0.8v-1.3
			L70.6,21.8L70.6,21.8z"/>
		<path class="st0" d="M76.2,28.6c0-0.1,0-0.3,0-0.4s0-0.2,0-0.3c-0.2,0.2-0.4,0.4-0.7,0.6c-0.4,0.1-0.7,0.2-1,0.2
			c-0.5,0-1-0.1-1.3-0.4c-0.3-0.3-0.4-0.6-0.4-1.2c0-0.5,0.2-0.9,0.6-1.2s1-0.4,1.7-0.4h1v-0.6c0-0.3-0.1-0.6-0.3-0.7
			c-0.2-0.2-0.5-0.3-0.8-0.3c-0.2,0-0.4,0-0.6,0.1s-0.3,0.1-0.4,0.2l-0.1,0.6h-0.8v-1c0.2-0.2,0.5-0.3,0.9-0.5
			c0.3-0.1,0.7-0.2,1.1-0.2c0.6,0,1.1,0.1,1.5,0.5c0.4,0.3,0.6,0.7,0.6,1.3v2.6c0,0,0,0.1,0,0.2s0,0.1,0,0.2h0.4v0.6h-1.4V28.6z
			 M74.6,27.8c0.3,0,0.6-0.1,0.9-0.2c0.2-0.1,0.4-0.3,0.6-0.5v-0.9h-1c-0.4,0-0.7,0.1-0.9,0.3c-0.2,0.2-0.3,0.4-0.3,0.7
			c0,0.2,0,0.4,0.2,0.5C74.1,27.8,74.3,27.8,74.6,27.8"/>
		<polygon class="st0" points="78.2,21.4 78.2,20.7 80,20.7 80,27.8 80.8,27.9 80.8,28.6 78.2,28.6 78.2,27.9 79,27.8 79,21.5 		"/>
		<polygon class="st0" points="84,28.6 84,27.9 84.8,27.8 84.8,22 84,21.9 84,21.2 84.8,21.2 85.8,21.2 86.7,21.2 86.7,21.9 
			85.8,22 85.8,27.8 88.4,27.8 88.4,26.9 89.3,26.9 89.3,28.6 		"/>
		<path class="st0" d="M90.1,27.9l0.8-0.1v-3.9l-0.8-0.1v-0.6h1.8v4.7l0.8,0.1v0.6h-2.6L90.1,27.9L90.1,27.9z M92,21.7h-1v-1h1V21.7
			z"/>
		<path class="st0" d="M98.5,26c0,0.8-0.2,1.4-0.5,1.9c-0.4,0.5-0.9,0.7-1.5,0.7c-0.3,0-0.6,0-0.9-0.2c-0.2-0.1-0.5-0.3-0.6-0.6
			l-0.1,0.7H94v-7.1l-0.8-0.1v-0.6H95v3.1c0.1-0.2,0.4-0.4,0.6-0.5s0.5-0.2,0.9-0.2c0.7,0,1.2,0.2,1.6,0.8
			C98.4,24.4,98.5,25.1,98.5,26L98.5,26L98.5,26z M97.5,25.9c0-0.6-0.1-1.1-0.3-1.5s-0.6-0.6-1-0.6c-0.3,0-0.5,0-0.8,0.2
			c-0.2,0.1-0.4,0.3-0.5,0.6V27c0.1,0.2,0.3,0.4,0.5,0.6c0.2,0.1,0.5,0.2,0.8,0.2c0.4,0,0.8-0.1,1-0.5S97.5,26.5,97.5,25.9
			L97.5,25.9z"/>
		<path class="st0" d="M99.5,23.8v-0.6h1.7l0.1,0.8c0.1-0.3,0.3-0.5,0.6-0.6s0.5-0.2,0.8-0.2c0.1,0,0.1,0,0.2,0s0.1,0,0.2,0
			l-0.1,0.9h-0.5c-0.2,0-0.5,0-0.6,0.2c-0.2,0.1-0.3,0.3-0.4,0.5v3.1l0.8,0.1v0.6h-2.6V28l0.8-0.1V24L99.5,23.8z"/>
		<path class="st0" d="M107.3,28.6c0-0.1,0-0.3,0-0.4s0-0.2,0-0.3c-0.2,0.2-0.4,0.4-0.7,0.6c-0.3,0.1-0.6,0.2-0.9,0.2
			c-0.5,0-1-0.1-1.3-0.4c-0.3-0.3-0.4-0.6-0.4-1.2c0-0.5,0.2-0.9,0.6-1.2s1-0.4,1.7-0.4h1v-0.6c0-0.3-0.1-0.6-0.3-0.7
			c-0.2-0.2-0.5-0.3-0.8-0.3c-0.2,0-0.4,0-0.6,0.1s-0.3,0.1-0.4,0.2l-0.1,0.6h-0.7v-1c0.2-0.2,0.5-0.3,0.9-0.5
			c0.3-0.1,0.7-0.2,1.1-0.2c0.6,0,1.1,0.1,1.5,0.5c0.4,0.3,0.6,0.7,0.6,1.3v2.6c0,0,0,0.1,0,0.2s0,0.1,0,0.2h0.4v0.6h-1.6V28.6z
			 M105.8,27.8c0.3,0,0.6-0.1,0.9-0.2c0.2-0.1,0.4-0.3,0.6-0.5v-0.9h-1c-0.4,0-0.7,0.1-0.9,0.3c-0.2,0.2-0.3,0.4-0.3,0.7
			c0,0.2,0,0.4,0.2,0.5C105.2,27.8,105.5,27.8,105.8,27.8"/>
		<path class="st0" d="M109.5,23.8v-0.6h1.7l0.1,0.8c0.1-0.3,0.3-0.5,0.6-0.6c0.2-0.1,0.5-0.2,0.8-0.2c0.1,0,0.1,0,0.2,0
			s0.1,0,0.2,0l-0.1,0.9h-0.5c-0.2,0-0.5,0-0.6,0.2c-0.2,0.1-0.3,0.3-0.4,0.5v3.1l0.8,0.1v0.6h-2.6V28l0.8-0.1V24L109.5,23.8z"/>
		<path class="st0" d="M118.9,23.8l-0.5,0.1l-2.1,5.6c-0.1,0.3-0.3,0.7-0.6,0.9c-0.2,0.2-0.6,0.4-1,0.4c-0.1,0-0.2,0-0.3,0
			c-0.1,0-0.2,0-0.3,0l0.1-0.8c0,0,0,0,0.2,0c0.1,0,0.2,0,0.2,0c0.2,0,0.4-0.1,0.5-0.3s0.2-0.4,0.3-0.6l0.2-0.5l-1.8-4.6l-0.5-0.1
			v-0.6h2.2v0.4l-0.6,0.1l0.9,2.7l0.2,0.7l0,0l1.1-3.4l-0.6-0.1v-0.6h2.2L118.9,23.8L118.9,23.8z"/>
		<path class="st0" d="M49.1,36.8c0-0.8,0.2-1.5,0.6-2c0.4-0.5,1-0.8,1.8-0.8c0.7,0,1.3,0.2,1.8,0.8c0.4,0.5,0.6,1.2,0.6,2v0.1
			c0,0.8-0.2,1.5-0.6,2c-0.4,0.5-1,0.8-1.8,0.8c-0.7,0-1.3-0.2-1.8-0.8C49.3,38.3,49.1,37.7,49.1,36.8L49.1,36.8z M50.1,36.9
			c0,0.6,0.1,1,0.3,1.4s0.6,0.5,1.1,0.5c0.4,0,0.8-0.2,1.1-0.5c0.2-0.4,0.3-0.8,0.3-1.4v-0.1c0-0.5-0.1-1-0.3-1.4s-0.6-0.5-1.1-0.5
			s-0.8,0.2-1.1,0.5C50.2,35.7,50.1,36.2,50.1,36.9L50.1,36.9z"/>
		<path class="st0" d="M54.8,34.8v-0.7h0.8v-0.7c0-0.6,0.1-1,0.4-1.3c0.3-0.3,0.7-0.5,1.3-0.5c0.1,0,0.2,0,0.3,0s0.2,0,0.4,0.1
			l-0.1,0.7c0,0-0.1,0-0.2,0c-0.1,0-0.1,0-0.2,0c-0.3,0-0.5,0.1-0.6,0.2s-0.2,0.4-0.2,0.7V34h1.1v0.7h-1.1v4l0.8,0.1v0.6h-2.6v-0.6
			l0.8-0.1v-3.9C55.8,34.8,54.8,34.8,54.8,34.8z"/>
		<polygon class="st0" points="61,32.8 61,32.2 63.7,32.2 63.7,32.8 62.8,33 62.8,38.7 63.7,38.9 63.7,39.5 61,39.5 61,38.9 
			61.8,38.7 61.8,33 		"/>
		<path class="st0" d="M64.3,38.9l0.8-0.2v-3.9l-0.8-0.1v-0.6H66v0.8c0.2-0.3,0.4-0.5,0.7-0.7c0.3-0.1,0.6-0.2,0.9-0.2
			c0.6,0,1,0.1,1.4,0.5c0.3,0.3,0.5,0.9,0.5,1.6v2.6l0.8,0.1v0.6h-2.6v-0.6l0.8-0.1v-2.6c0-0.5-0.1-0.8-0.3-1
			c-0.2-0.2-0.5-0.3-0.9-0.3c-0.3,0-0.5,0-0.7,0.2s-0.4,0.3-0.5,0.5v3.2l0.8,0.1v0.6h-2.6L64.3,38.9L64.3,38.9z"/>
		<path class="st0" d="M74.8,38.9c-0.2,0.2-0.4,0.4-0.6,0.5s-0.5,0.2-0.9,0.2c-0.6,0-1.2-0.2-1.5-0.7c-0.4-0.5-0.5-1.1-0.5-1.9v-0.1
			c0-0.9,0.2-1.6,0.5-2.1c0.4-0.5,0.9-0.8,1.6-0.8c0.3,0,0.6,0,0.8,0.2c0.2,0.1,0.4,0.3,0.6,0.5v-2.2L74,32.4v-0.7h0.8h1v7l0.7,0.1
			v0.6h-1.7V38.9z M72.1,37c0,0.5,0.1,1,0.3,1.3c0.2,0.3,0.6,0.5,1,0.5c0.3,0,0.5,0,0.7-0.2s0.3-0.3,0.5-0.5v-2.5
			c-0.1-0.2-0.3-0.4-0.5-0.5s-0.4-0.2-0.7-0.2c-0.5,0-0.8,0.2-1,0.6C72.2,35.8,72.1,36.3,72.1,37L72.1,37z"/>
		<path class="st0" d="M77.2,38.9l0.9-0.2v-3.9l-0.9-0.1v-0.6h1.9v4.6l0.8,0.1v0.6h-2.6L77.2,38.9L77.2,38.9z M79.1,32.7h-1v-1h1
			V32.7z"/>
		<path class="st0" d="M84.2,39.5c0-0.1,0-0.3,0-0.4c0-0.1,0-0.2,0-0.3c-0.2,0.2-0.4,0.4-0.7,0.6c-0.3,0.1-0.6,0.2-0.9,0.2
			c-0.5,0-1-0.1-1.3-0.4c-0.3-0.3-0.4-0.6-0.4-1.2c0-0.5,0.2-0.9,0.6-1.2s1-0.4,1.7-0.4h1v-0.6c0-0.3-0.1-0.6-0.3-0.7
			c-0.2-0.2-0.5-0.3-0.8-0.3c-0.2,0-0.4,0-0.6,0.1c-0.2,0-0.3,0.1-0.4,0.2l-0.3,0.6H81v-1c0.2-0.2,0.5-0.3,0.9-0.5
			c0.3-0.1,0.7-0.2,1.1-0.2c0.6,0,1.1,0.1,1.5,0.5c0.4,0.3,0.6,0.7,0.6,1.3v2.6c0,0,0,0.1,0,0.2c0,0,0,0.1,0,0.2h0.4v0.6L84.2,39.5
			L84.2,39.5z M82.6,38.8c0.3,0,0.6-0.1,0.9-0.2c0.2-0.1,0.4-0.3,0.6-0.5v-0.9h-1c-0.4,0-0.7,0.1-0.9,0.3c-0.2,0.2-0.3,0.4-0.3,0.7
			c0,0.2,0,0.4,0.2,0.5C82.1,38.7,82.3,38.8,82.6,38.8"/>
	</g>
	<g>
		<path class="st0" d="M23.6,1.5C12,1.5,2.7,11.1,2.7,22.9s9.4,21.4,20.9,21.4c11.6,0,20.9-9.6,20.9-21.4C44.5,11,35.1,1.5,23.6,1.5
			 M23.6,37.4c-8,0-14.5-6.5-14.5-14.5S15.6,8.4,23.6,8.4s14.5,6.4,14.5,14.5C38.1,30.9,31.6,37.4,23.6,37.4"/>
		<path class="st0" d="M23.6,8.7c-7.8,0-14,6.3-14,14.1s6.3,14.1,14,14.1s14-6.3,14-14.1S31.3,8.7,23.6,8.7 M33,32.3
			c-2.4,2.4-5.8,3.9-9.4,3.9s-7-1.5-9.4-3.9l0,0c0.4-0.2,2.5-1.4,5.2-1.5c2.9-0.1,4.6,1.8,4.6,1.8c0.7-1.5,3.9-5.7,8.5-5.6
			c1.6,0,3.3,0.6,3.6,0.7C35.3,29.5,34.2,31.1,33,32.3 M36.1,27.3c-0.2-0.1-2.1-1.1-4.2-1c-5.7,0.1-8.1,5.3-8.1,5.3
			s-1.3-1.8-4.2-1.7c-3.1,0-5.4,1.6-5.9,2c-0.4-0.4-0.8-0.9-1.1-1.4l0,0c1.8-1.5,4-2.3,6.3-2.4c2.6,0,4.5,1.4,4.5,1.4
			c1-1.2,3.5-5,8.3-5c2.1,0,4.2,0.9,4.8,1.2C36.4,26.2,36.3,26.8,36.1,27.3 M36.7,25.3L36.7,25.3c0,0-1.7-1.6-5-1.6
			c-6,0-8.3,5.1-8.3,5.1s-1.2-1.6-4.1-1.6c-4.1,0-6.2,2.4-6.8,3c-0.2-0.3-0.4-0.7-0.6-1.1c0.6-0.5,3.6-3,7.1-2.8
			c2.6-0.1,4.1,1.4,4.1,1.4s3.3-5.5,8.3-5.2c2.8,0.1,4.7,1.2,5.5,1.7C36.8,24.5,36.7,24.9,36.7,25.3 M31.2,21.4
			C25,21.6,23,26.5,23,26.5S21.4,25,18.9,25c-0.2,0-0.3,0-0.5,0c0.1-0.9,0.6-3.6,3.1-6.1c3-3.1,7.4-1.8,7.4-1.8s-1.2-0.8-2.9-0.9
			c0.7-0.5,1.1-1.5,1.1-2.5c0-2-1.6-3.6-3.5-3.6c-2,0-3.5,1.6-3.5,3.6c0,1.6,1.1,3,2.6,3.4c-0.4,0.2-0.9,0.6-1.4,1
			c-3.1,2.6-3,6-2.9,7c-2.4,0.2-5,1.4-6.7,3.5c-0.8-1.7-1.3-3.7-1.3-5.8c0-3.7,1.5-7,3.9-9.5s5.8-3.9,9.4-3.9s7,1.5,9.4,3.9
			c2.4,2.4,3.9,5.8,3.9,9.5c0,0.2,0,0.4,0,0.7C36.2,22.9,34.2,21.4,31.2,21.4 M23.6,16.5c-1.6,0-2.8-1.3-2.8-2.9s1.3-2.8,2.8-2.9
			c1.5,0,2.8,1.3,2.8,2.9S25.1,16.5,23.6,16.5"/>
		<g>
			<g>
				<path d="M8.1,21.4L5,20.9v-0.4l1.7-0.7c0.4-0.1,0.7-0.3,1.1-0.4l0,0c-0.4,0-0.8-0.1-1.3-0.1l-1.3-0.2l0.1-0.4l3.1,0.5v0.4
					l-1.8,0.7c-0.4,0.1-0.8,0.3-1.1,0.4l0,0c0.4,0,0.8,0.1,1.3,0.1L8.1,21L8.1,21.4z"/>
			</g>
			<g>
				<path d="M9,17H8.7l0,0c0.1,0.2,0.2,0.4,0.1,0.7c-0.1,0.4-0.5,0.5-0.8,0.4c-0.5-0.2-0.6-0.7-0.3-1.5l0,0c-0.2,0-0.5-0.1-0.6,0.3
					c0,0.2-0.1,0.4,0,0.6H6.8c0-0.2,0-0.5,0-0.7c0.2-0.6,0.7-0.6,1.1-0.5l0.8,0.3c0.2,0,0.4,0.1,0.5,0.1L9,17z M7.9,16.7
					c-0.1,0.4-0.2,0.9,0.2,1c0.2,0.1,0.4,0,0.5-0.2c0.1-0.3,0-0.5-0.2-0.6H8.3L7.9,16.7z"/>
			</g>
			<g>
				<path d="M7.1,14.1l0.6,0.3l0.2-0.5L8.2,14L8,14.5L9.1,15c0.2,0.1,0.4,0.1,0.5-0.1c0-0.1,0-0.1,0.1-0.2l0.3,0.1
					c0,0.1,0,0.2-0.1,0.3c-0.1,0.1-0.2,0.3-0.3,0.3s-0.3,0-0.6-0.1l-1.1-0.5l-0.1,0.3L7.5,15l0.1-0.3l-0.5-0.2V14.1z"/>
			</g>
			<g>
				<path d="M7.9,12.6C8,12.6,8,12.8,8,12.9C8,13,7.8,13,7.7,13s-0.1-0.2-0.1-0.3C7.7,12.6,7.8,12.5,7.9,12.6z M10.2,14.5l-2-1.1
					l0.2-0.3l2,1.1L10.2,14.5z"/>
			</g>
			<g>
				<path d="M11.1,11.2c0.7,0.5,0.6,1.2,0.3,1.6c-0.3,0.5-1,0.6-1.6,0.1c-0.6-0.4-0.6-1.1-0.3-1.6C9.9,10.8,10.5,10.7,11.1,11.2z
					 M10,12.6c0.4,0.3,0.9,0.3,1.1,0s0.1-0.7-0.3-1.1c-0.3-0.2-0.8-0.4-1.1,0C9.4,11.9,9.7,12.3,10,12.6z"/>
			</g>
			<g>
				<path d="M11.4,10.1C11.3,10,11.1,9.8,11,9.7l0.2-0.2l0.3,0.2l0,0c0-0.2,0-0.5,0.2-0.8c0.2-0.2,0.7-0.4,1.2,0.1l0.9,1l-0.3,0.3
					l-0.9-0.9c-0.2-0.2-0.5-0.4-0.8-0.1c-0.2,0.2-0.2,0.4-0.1,0.7c0,0,0,0.1,0.1,0.1l0.9,1l-0.3,0.2L11.4,10.1z"/>
			</g>
			<g>
				<path d="M15.5,8.8l-0.2-0.2l0,0c0,0.2-0.1,0.5-0.4,0.6c-0.4,0.2-0.7,0.1-0.9-0.1c-0.3-0.4-0.1-1,0.6-1.4l0,0
					c-0.1-0.1-0.3-0.4-0.7-0.1c-0.1,0.1-0.3,0.3-0.4,0.4l-0.2-0.3c0.1-0.2,0.2-0.4,0.5-0.6c0.5-0.4,1-0.1,1.2,0.3l0.5,0.7
					c0.1,0.1,0.2,0.3,0.3,0.4L15.5,8.8z M14.9,7.9c-0.3,0.2-0.7,0.6-0.5,0.9C14.5,9,14.7,9,14.9,8.9s0.3-0.4,0.2-0.6V8.2L14.9,7.9z"
					/>
			</g>
			<g>
				<path d="M15.2,5.2L15.5,5L17,8l-0.4,0.2L15.2,5.2z"/>
			</g>
			<g>
				<path d="M18.2,4.1C18.4,4,18.7,3.9,19,3.8c0.5-0.1,1-0.1,1.3,0c0.3,0.2,0.6,0.5,0.7,1s0.1,0.9-0.1,1.3c-0.2,0.3-0.6,0.6-1.2,0.8
					C19.4,6.9,19.2,7,19,7L18.2,4.1z M19.3,6.7c0.1,0,0.2,0,0.4-0.1c0.8-0.2,1.1-0.8,0.9-1.6c-0.2-0.7-0.7-1-1.5-0.8
					c-0.2,0-0.3,0.1-0.4,0.1L19.3,6.7z"/>
			</g>
			<g>
				<path d="M22.1,3.5c0,0.1,0,0.2-0.2,0.3c-0.1,0-0.2-0.1-0.3-0.2c0-0.1,0.1-0.2,0.2-0.3C21.9,3.3,22,3.4,22.1,3.5z M21.9,6.5
					l-0.2-2.3h0.4l0.2,2.3H21.9z"/>
			</g>
			<g>
				<path d="M25,4c0,0.1,0,0.3,0,0.6v1.3c0,0.5-0.1,0.8-0.3,1s-0.5,0.3-0.8,0.3s-0.5,0-0.7-0.2l0.1-0.3c0.1,0.1,0.4,0.1,0.6,0.1
					c0.4,0,0.7-0.2,0.7-0.8V5.8l0,0c-0.1,0.2-0.3,0.4-0.7,0.4c-0.5,0-0.9-0.4-0.9-1.1c0-0.8,0.5-1.2,1-1.2c0.4,0,0.6,0.2,0.7,0.4
					l0,0V4H25z M24.6,4.9c0,0,0-0.1,0-0.2c-0.1-0.2-0.3-0.4-0.6-0.4c-0.4,0-0.6,0.3-0.6,0.9c0,0.4,0.2,0.8,0.7,0.8
					c0.2,0,0.5-0.1,0.5-0.4c0,0,0-0.1,0-0.2V4.9z"/>
			</g>
			<g>
				<path d="M25.7,6.4l0.2-2.2h0.4l-0.2,2.3L25.7,6.4z M26.5,3.6c0,0.1-0.1,0.2-0.3,0.2c-0.1,0-0.2-0.1-0.2-0.3
					c0-0.1,0.1-0.2,0.3-0.2C26.4,3.3,26.5,3.4,26.5,3.6z"/>
			</g>
			<g>
				<path d="M27.8,3.7l-0.1,0.6l0.5,0.1v0.3l-0.6,0l-0.2,1.2c0,0.3,0,0.4,0.2,0.5c0.1,0,0.2,0,0.2,0v0.3c-0.1,0-0.2,0-0.3,0
					c-0.2,0-0.3-0.1-0.4-0.2c-0.1-0.1-0.1-0.3,0-0.6l0.2-1.2H27V4.4h0.3l0.1-0.5L27.8,3.7z"/>
			</g>
			<g>
				<path d="M29.4,7.3V7l0,0c-0.2,0.1-0.4,0.2-0.7,0.1c-0.4-0.1-0.5-0.5-0.4-0.8C28.5,5.8,29,5.7,29.8,6l0,0c0-0.2,0.1-0.5-0.3-0.6
					c-0.2,0-0.4-0.1-0.6,0V5.1c0.2,0,0.5,0,0.7,0c0.6,0.2,0.6,0.7,0.5,1.1L29.8,7c0,0.2-0.1,0.4-0.1,0.5L29.4,7.3z M29.8,6.2
					c-0.4-0.1-0.9-0.2-1,0.2c-0.1,0.2,0,0.4,0.2,0.5c0.3,0.1,0.5,0,0.6-0.2V6.6L29.8,6.2z"/>
			</g>
			<g>
				<path d="M32.2,4.8L32.5,5L31,8l-0.3-0.2L32.2,4.8z"/>
			</g>
			<g>
				<path d="M34.8,6.5l0.3,0.2L33.4,9l1,0.8l-0.2,0.3l-1.4-1L34.8,6.5z"/>
			</g>
			<g>
				<path d="M34.8,10.5l1.6-1.6l0.3,0.3l-1.6,1.6L34.8,10.5z M37.1,8.7c-0.1,0.1-0.2,0.1-0.3,0s-0.1-0.2,0-0.3
					c0.1-0.1,0.2-0.1,0.3,0C37.2,8.4,37.2,8.6,37.1,8.7z"/>
			</g>
			<g>
				<path d="M35.6,11.3c0.1-0.1,0.3-0.2,0.4-0.3l2.1-1.8l0.2,0.3l-1.1,0.9l0,0c0.3,0,0.6,0,0.8,0.3c0.3,0.4,0.2,1-0.3,1.5
					c-0.6,0.5-1.2,0.4-1.6,0c-0.2-0.2-0.3-0.5-0.1-0.8l0,0l-0.3,0.2L35.6,11.3z M36.6,11C36.5,11.1,36.5,11.1,36.6,11
					c-0.2,0.3-0.2,0.6-0.1,0.9c0.2,0.3,0.7,0.3,1.1,0c0.3-0.3,0.5-0.7,0.2-1c-0.2-0.2-0.5-0.3-0.8-0.1c0,0-0.1,0-0.1,0.1L36.6,11z"
					/>
			</g>
			<g>
				<path d="M38.6,12.5c0.2-0.1,0.4-0.3,0.6-0.4l0.2,0.3L39,12.7l0,0c0.3-0.1,0.6,0,0.7,0.2c0,0,0,0,0,0.1l-0.3,0.2v-0.1
					c-0.1-0.2-0.4-0.3-0.7-0.1c0,0-0.1,0-0.1,0.1l-1,0.6l-0.2-0.3L38.6,12.5z"/>
			</g>
			<g>
				<path d="M38.6,15.7l0.2-0.1l0,0c-0.2,0-0.4-0.2-0.6-0.4c-0.2-0.4,0-0.7,0.3-0.9c0.5-0.2,1,0,1.3,0.8l0,0
					c0.1-0.1,0.4-0.3,0.2-0.7c-0.1-0.2-0.2-0.3-0.4-0.4l0.2-0.2c0.2,0.1,0.4,0.3,0.5,0.6c0.3,0.6,0,1-0.5,1.2L39,15.9
					c-0.2,0.1-0.3,0.2-0.5,0.2L38.6,15.7z M39.6,15.2c-0.2-0.4-0.4-0.8-0.9-0.6c-0.2,0.1-0.3,0.3-0.2,0.5s0.4,0.3,0.6,0.3h0.1
					L39.6,15.2z"/>
			</g>
			<g>
				<path d="M40.6,16.6c0.2-0.1,0.5-0.1,0.7-0.2l0.1,0.3L41,16.8l0,0c0.3,0,0.6,0.2,0.6,0.4v0.1l-0.3,0.1v-0.1
					c-0.1-0.2-0.3-0.4-0.7-0.3c0,0-0.1,0-0.2,0l-1.1,0.4l-0.2-0.3L40.6,16.6z"/>
			</g>
			<g>
				<path d="M41.9,18.4l-1.2,0.7c-0.1,0.1-0.3,0.1-0.4,0.2l0,0c0.1,0,0.3,0,0.5,0l1.3,0.4l0.1,0.4l-1.7-0.3
					c-0.8-0.1-1.2-0.2-1.5-0.5c-0.2-0.1-0.3-0.3-0.3-0.4l0.3-0.1c0,0.1,0.1,0.2,0.2,0.3c0.1,0.1,0.3,0.2,0.5,0.2h0.1c0,0,0,0,0.1,0
					l1.9-1.2L41.9,18.4z"/>
			</g>
			<g>
				<path d="M19.3,40.6c-0.2,0.8-0.9,0.9-1.4,0.8c-0.6-0.2-0.8-0.8-0.6-1.4c0.2-0.7,0.8-1,1.4-0.8S19.5,40,19.3,40.6z M17.6,40.1
					c-0.1,0.5,0,0.9,0.3,1s0.7-0.1,0.9-0.6c0.1-0.3,0.1-0.9-0.3-1C18.1,39.3,17.8,39.7,17.6,40.1z"/>
			</g>
			<g>
				<path d="M19.8,41.9l0.4-1.9h-0.3v-0.3h0.3v-0.1c0-0.3,0.2-0.6,0.4-0.7c0.2-0.1,0.4-0.1,0.6-0.1c0.1,0,0.2,0.1,0.3,0.1l-0.1,0.3
					c0,0-0.1-0.1-0.2-0.1c-0.3,0-0.5,0.2-0.5,0.5v0.1l0.5,0.1v0.3L20.7,40l-0.4,1.9H19.8z"/>
			</g>
			<g>
				<path d="M23.1,39.2l-0.2,3.2h-0.4l0.2-3.2H23.1z"/>
			</g>
			<g>
				<path d="M23.5,40.7c0-0.2,0-0.4,0-0.6h0.3v0.4l0,0c0.1-0.2,0.3-0.4,0.7-0.4c0.3,0,0.8,0.1,0.8,0.9v1.3h-0.4V41
					c0-0.3-0.1-0.7-0.5-0.6c-0.2,0-0.4,0.2-0.5,0.4c0,0,0,0.1,0,0.2v1.3h-0.4V40.7z"/>
			</g>
			<g>
				<path d="M27.5,38.7l0.4,2.7c0,0.2,0.1,0.4,0.1,0.6h-0.3l-0.1-0.3l0,0c-0.1,0.2-0.3,0.5-0.7,0.5c-0.5,0.1-1-0.3-1.1-1
					s0.2-1.3,0.8-1.4c0.3,0,0.6,0,0.7,0.2l0,0l-0.1-1.3H27.5z M27.4,40.7L27.4,40.7c-0.1-0.3-0.3-0.5-0.6-0.5c-0.4,0-0.6,0.5-0.5,1
					c0.1,0.4,0.3,0.8,0.8,0.7c0.2,0,0.5-0.2,0.5-0.6c0,0,0-0.1,0-0.2L27.4,40.7z"/>
			</g>
			<g>
				<path d="M28.5,38.8c0,0.1,0,0.2-0.2,0.3c-0.1,0-0.2,0-0.3-0.2c0-0.1,0-0.3,0.2-0.3S28.4,38.7,28.5,38.8z M28.8,41.8l-0.6-2.2
					l0.4-0.1l0.6,2.2L28.8,41.8z"/>
			</g>
			<g>
				<path d="M31.1,41L31,40.8l0,0c0,0.2-0.2,0.4-0.5,0.5c-0.4,0.1-0.7,0-0.9-0.3c-0.2-0.5,0.1-1,0.9-1.3l0,0c0-0.2-0.2-0.5-0.6-0.3
					c-0.2,0.1-0.4,0.2-0.5,0.3l-0.3-0.2c0.1-0.2,0.3-0.3,0.6-0.4c0.6-0.2,0.9,0.1,1.1,0.5l0.3,0.8c0,0.2,0.1,0.3,0.2,0.5L31.1,41z
					 M30.6,40c-0.4,0.1-0.8,0.4-0.7,0.8c0.1,0.2,0.3,0.3,0.5,0.2s0.4-0.3,0.3-0.5v-0.1L30.6,40z"/>
			</g>
		</g>
	</g>
</g>
</svg>
